<svg width="40" height="40" viewBox="0 0 40 40" fill="none" xmlns="http://www.w3.org/2000/svg">
  <rect width="40" height="40" rx="8" fill="#3B82F6" fill-opacity="0.1"/>
  <path d="M14.7 6.3C15.1 5.9 15.7 5.9 16.1 6.3L22.3 12.5C22.7 12.9 22.7 13.5 22.3 13.9L13.9 22.3C13.5 22.7 12.9 22.7 12.5 22.3L6.3 16.1C5.9 15.7 5.9 15.1 6.3 14.7L14.7 6.3Z" stroke="#3B82F6" stroke-width="2"/>
  <path d="M13 19L21 11" stroke="#3B82F6" stroke-width="2"/>
  <path d="M22.5 6.5L33.5 17.5" stroke="#3B82F6" stroke-width="2"/>
  <path d="M30 13.5L26.5 17L22.5 13L26 9.5L30 13.5Z" stroke="#3B82F6" stroke-width="2"/>
  <circle cx="25" cy="25" r="8" stroke="#3B82F6" stroke-width="2"/>
  <path d="M18.2 31.8L31.8 18.2" stroke="#3B82F6" stroke-width="2"/>
</svg>
